<!-- scratch by Anton from the Noun Project -->
<svg xmlns="http://www.w3.org/2000/svg" viewBox="0 0 88.67 81.44"><title>scratch</title><g id="Layer_2" data-name="Layer 2"><g id="Layer_1-2" data-name="Layer 1"><path d="M79,72A250.27,250.27,0,0,0,57.86,45.77c2.12-1.72,4.27-3.41,6.45-5.09,8.41,7.54,16.43,15.22,24.36,22.69A249.83,249.83,0,0,0,68.16,37.8,233,233,0,0,1,88.31,24.43L87,18.07a166.89,166.89,0,0,0-23.37,15c-1.47-1.51-3-3-4.5-4.46A235.63,235.63,0,0,1,79.66,15L78.38,8.65a168.55,168.55,0,0,0-24,15.51Q52,22,49.52,20A233.69,233.69,0,0,1,70,6.36L68.71,0A167.34,167.34,0,0,0,44.34,15.79,168,168,0,0,0,20,0L18.68,6.36A233.69,233.69,0,0,1,39.15,20Q36.69,22,34.3,24.16a168.09,168.09,0,0,0-24-15.51L9,15A235.63,235.63,0,0,1,29.5,28.62c-1.53,1.47-3,2.95-4.5,4.46a166.89,166.89,0,0,0-23.37-15L.36,24.43A234.6,234.6,0,0,1,20.51,37.8,249.83,249.83,0,0,0,0,63.37c7.93-7.48,16-15.15,24.36-22.69,2.18,1.68,4.33,3.37,6.45,5.09A249.24,249.24,0,0,0,9.67,72c8.1-7.63,16.29-15.48,24.9-23.17q3,2.55,6,5.13A246.72,246.72,0,0,0,18.32,81.44c8.46-8,17-16.16,26-24.17,9,8,17.55,16.21,26,24.17A247.64,247.64,0,0,0,48.08,54q3-2.58,6-5.13C62.71,56.54,70.9,64.39,79,72ZM59.46,36.39q-3,2.43-5.83,5c-1.57-1.59-3.17-3.17-4.79-4.71q2.8-2.27,5.68-4.49C56.18,33.55,57.83,35,59.46,36.39ZM44.34,23.89c1.75,1.37,3.49,2.74,5.2,4.13-1.76,1.46-3.5,2.95-5.2,4.47-1.71-1.52-3.45-3-5.21-4.47C40.84,26.63,42.58,25.26,44.34,23.89ZM29.2,36.39c1.64-1.42,3.28-2.84,4.95-4.24q2.88,2.22,5.68,4.49c-1.63,1.55-3.22,3.12-4.79,4.71C33.13,39.66,31.19,38,29.2,36.39ZM44.34,50.11Q41.72,47.49,39,44.94c1.76-1.53,3.53-3.06,5.34-4.57,1.8,1.51,3.57,3,5.33,4.57Q47,47.49,44.34,50.11Z"/></g></g></svg>
